<?xml version="1.0" encoding="utf-8"?>
<!-- Generator: Adobe Illustrator 24.3.0, SVG Export Plug-In . SVG Version: 6.00 Build 0)  -->
<svg version="1.1" id="Layer_1" xmlns="http://www.w3.org/2000/svg" xmlns:xlink="http://www.w3.org/1999/xlink" x="0px" y="0px"
	 viewBox="0 0 2046 528" style="enable-background:new 0 0 2046 528;" xml:space="preserve">
<style type="text/css">
	.st0{fill:#010101;}
	.st1{fill:#FDFDFD;}
	.st2{fill:#F9F9F9;}
</style>
<g>
	<g>
		<path class="st0" d="M437,26.5c0.8,0.2,1.6,0.4,2.4,0.6c2.1,0.5,4.1,1.1,6.1,1.8c0.5,0.2,1,0.3,1.5,0.5
			c17.1,5.3,33.7,13.1,48.3,23.7c0.4,0.3,0.9,0.6,1.4,1c30.6,22.3,52.8,52.1,65.6,87.7c0.2,0.6,0.4,1.2,0.6,1.8
			c6.4,17.9,8.8,36.3,8.8,55.2c0,2.1,0,4.1,0,6.2c0,12.4-1,24.5-3.4,36.7c-0.2,0.8-0.3,1.6-0.5,2.5c-1.7,7.9-4.2,15.4-7.1,22.9
			c-0.2,0.6-0.5,1.2-0.7,1.9c-8.8,22.5-21.4,42.2-38.2,59.6c-0.4,0.5-0.9,0.9-1.3,1.4c-26.1,27.2-60.4,44.8-97.5,51.5
			c-0.6,0.1-1.3,0.2-1.9,0.4c-18.4,3.3-38.8,3.6-57.2,0.4c-0.7-0.1-1.4-0.2-2.1-0.3c-46-7.6-89-33.2-116.3-71.3c-0.7-1-1.4-2-2.1-3
			c-0.7-0.9-1.3-1.9-2-2.8c-9-12.7-15.6-26.7-20.7-41.3c-0.6-1.6-1.1-3.1-1.7-4.7c-9.9-27-11.2-60-5.9-88.1c0.2-1,0.4-1.9,0.5-2.9
			c0.5-2.7,1.1-5.3,1.8-7.9c0.1-0.5,0.3-1.1,0.4-1.6c5.9-25.2,17.4-49.1,33.8-69.2c0.6-0.8,1.3-1.6,1.9-2.4
			c8.3-10.2,17.7-20.3,28.4-28c0.5-0.3,0.9-0.7,1.4-1C326.3,24.3,382.5,12.8,437,26.5z"/>
		<path class="st0" d="M577.8,44.4c21.1,0,42.2-0.1,63.2-0.1c9.8,0,19.6,0,29.4,0c8.5,0,17.1,0,25.6,0c4.5,0,9,0,13.5,0
			c4.3,0,8.5,0,12.8,0c1.6,0,3.1,0,4.7,0c8.3,0,16.6,0.2,24.9,0.9c0.8,0.1,1.5,0.1,2.3,0.2c26.8,2.4,55.8,12.2,73.7,33.1
			c7,8.7,11.9,18.7,15.5,29.2c0.2,0.5,0.4,1.1,0.6,1.6c2.9,8.9,3.4,17.9,3.3,27.2c0,0.9,0,0.9,0,1.8c-0.1,23.8-6.1,44.8-21.3,63.4
			c-0.8,0.9-0.8,0.9-1.5,1.9c-16.4,19.3-42.9,30.1-67.7,32.6c-7,0.6-13.9,0.7-20.9,0.7c-1.8,0-3.7,0-5.5,0c-3.4,0-6.8,0-10.2-0.1
			c-0.9,0-1.8,0-2.8,0c-5.3-0.2-7.8-0.9-11.4-4.7c-0.8-0.8-1.6-1.6-2.4-2.4c-0.7-0.7-1.4-1.5-2.1-2.2c-1-0.9-2-1.8-3-2.7
			c-0.5-0.4-0.9-0.8-1.4-1.3c-1.5-1.3-3-2.5-4.5-3.8c-0.5-0.4-1-0.8-1.5-1.3c-1-0.8-2-1.6-2.9-2.5c-0.7-0.6-0.7-0.6-1.4-1.2
			c-0.4-0.3-0.8-0.7-1.2-1c-1.3-1.3-2.4-2.7-3.5-4.2c0.5,0,0.9,0,1.4,0c4.8-0.1,9.6-0.1,14.4-0.2c1.8,0,3.6,0,5.4-0.1
			c13.4-0.1,27.1-0.4,39.9-5c0.6-0.2,1.1-0.4,1.7-0.6c2.7-0.9,7.5-2.8,12.8-6.4c1.7-1.2,3.9-2.8,6.3-5.2c0.1-0.1,0.2-0.1,0.2-0.2
			c0.4-0.3,1-0.8,1.6-1.4c0.5-0.4,0.8-0.8,1.3-1.3c0.6-0.6,1.3-1.4,2.2-2.5c0,0,0.8-1.1,1.6-2.2c18.5-27.6,11.5-60,11.5-60
			c-2.9-16-10.6-31.4-24-41.1c-18-11.7-36.7-12-57.4-12.1c-3,0-6-0.1-9-0.1c-5.9-0.1-11.7-0.1-17.6-0.2c0,0.8,0,1.5,0,2.3
			c1.5,0.8,3.1,1.5,4.6,2.2c2.8,1.3,4.9,2.4,6.7,4.8c1.7,2.4,1.7,2.4,4,3.3c3.8,2,6,5.1,8.7,8.3c0.6,0.7,1.1,1.4,1.7,2.1
			c6.6,8.1,6.6,8.1,8,13.5c0.7,2.3,1.3,4.2,2.4,6.3c4,8.5,3,23.1,0.2,31.8c-0.7,1.6-0.7,1.6-1.5,3.2c-0.8,1.7-1,3-1.3,4.9
			c-0.7,3.5-2.1,5.7-4.4,8.3c-1.4,1.6-1.4,1.6-2.7,3.8c-2,2.8-4.1,5.2-6.6,7.6c-0.4,0.4-0.8,0.9-1.3,1.3c-2.7,2.7-5.3,4.5-8.8,6.1
			c-1.6,0.7-1.6,0.7-3.4,2.3c-2.1,1.7-4,2.2-6.5,3c0,17.4-0.1,34.8-0.1,52.2c0,8.1,0,16.2,0,24.3c0,7,0,14.1,0,21.1
			c0,3.7,0,7.5,0,11.2c0,3.5,0,7,0,10.5c0,1.3,0,2.6,0,3.9c0,10.2,0,21.9,7.3,29.9c9.3,8.3,22.3,9.3,34.1,10.3c0,8,0,15.9,0,24.1
			c-44.9,0-89.9,0-136.1,0c0-8,0-15.9,0-24.1c2.8-0.3,2.8-0.3,5.7-0.7c16-1.9,16-1.9,28.9-10.8c4.4-7,5.4-13.7,5.4-21.8
			c0-0.9,0-1.8,0-2.7c0-3,0-5.9,0-8.9c0-2.1,0-4.3,0-6.4c0-5.2,0-10.4,0-15.6c0-4.2,0-8.4,0-12.7c0-0.6,0-1.2,0-1.8
			c0-1.2,0-2.4,0-3.7c0-11.5,0-22.9,0-34.4c0-9.8,0-19.6,0-29.4c0-11.4,0-22.8,0-34.2c0-1.2,0-2.4,0-3.7c0-0.6,0-1.2,0-1.8
			c0-4.2,0-8.4,0-12.6c0-5.1,0-10.3,0-15.4c0-2.6,0-5.2,0-7.9c0.1-26.1,0.1-26.1-12-48.6c-8.5-6.9-19.1-7.5-29.6-8.6
			C577.8,60.1,577.8,52.4,577.8,44.4z"/>
		<path class="st1" d="M466.5,95.8c-1.2,2.8-2.7,4.3-4.9,6.2c-3.2,2.8-6.2,5.7-9.2,8.7c-0.4,0.4-0.8,0.8-1.2,1.3
			c-1.3,1.3-2.5,2.5-3.8,3.8c-9.3,9.4-9.3,9.4-12.7,12.3c-5,4.2-9.5,9-14.1,13.7c-10.9,11.1-10.9,11.1-15.7,15.1
			c-2.7,2.3-5.1,4.9-7.6,7.4c-0.5,0.5-1.1,1.1-1.6,1.6c-1.3,1.3-2.6,2.6-3.8,3.9c-2.5-0.8-2.9-1.2-4.4-3.2c-1.6-1.9-3.2-3.6-5.1-5.2
			c-6-5.1-11.4-10.9-16.9-16.5c-1.5-1.5-3.1-3.1-4.6-4.6c-0.5-0.5-0.9-0.9-1.4-1.4c-2.3-2.3-4.7-4.6-7.2-6.7
			c-3.3-2.8-6.3-5.8-9.3-8.9c-0.6-0.6-1.1-1.1-1.7-1.7c-2.4-2.4-4.8-4.8-7.1-7.2c-1.7-1.8-3.5-3.5-5.3-5.3c-0.5-0.5-1.1-1.1-1.6-1.6
			c-3.5-3.5-7.1-6.8-10.8-10c0.9-2.7,1.4-3,3.8-4.4c0.6-0.4,1.3-0.8,1.9-1.2c0.7-0.4,1.4-0.8,2.1-1.2c0.7-0.4,1.4-0.8,2.1-1.3
			c10.2-5.9,20.6-10.1,32-12.9c1-0.3,1-0.3,2.1-0.5C396.2,66.6,436.6,74,466.5,95.8z"/>
		<path class="st1" d="M390.3,235c8.7,4,15.5,13.1,22.1,19.8c1.5,1.5,3,3,4.4,4.5c0.4,0.4,0.9,0.9,1.3,1.4c2.3,2.3,4.6,4.5,7,6.6
			c3.5,3,6.7,6.2,9.9,9.4c0.6,0.6,1.2,1.2,1.9,1.9c2.6,2.6,5.2,5.2,7.8,7.9c1.9,1.9,3.8,3.8,5.7,5.8c0.6,0.6,1.2,1.2,1.8,1.8
			c3.2,3.2,6.4,6.2,9.8,9.1c1.3,1.1,2.5,2.3,3.7,3.5c-1.8,4.9-7.4,6.9-11.7,9.3c-0.5,0.3-0.9,0.5-1.4,0.8
			c-9.2,5.1-18.9,8.6-28.9,11.7c-0.6,0.2-1.2,0.4-1.9,0.6c-18.8,5.4-44,5-62.7-0.6c-0.7-0.2-1.3-0.4-2-0.6
			c-14.6-4.3-28.2-10.9-40.8-19.6c3.4-4.1,7-7.9,10.8-11.7c0.5-0.5,1-1,1.6-1.6c0.5-0.5,1-1,1.6-1.6c0.5-0.5,0.9-0.9,1.4-1.4
			c1.5-1.5,3.1-2.8,4.7-4.2c3.2-2.8,6.2-5.7,9.1-8.7c0.5-0.5,1.1-1.1,1.6-1.6c1.7-1.7,3.3-3.4,5-5c2.2-2.2,4.4-4.4,6.6-6.7
			c0.5-0.5,1-1,1.5-1.5c2.9-2.9,5.9-5.7,9.1-8.4c2.2-1.9,4.3-4,6.3-6.1c0.4-0.4,0.8-0.8,1.3-1.3c1.3-1.3,2.6-2.7,4-4
			c0.9-0.9,1.8-1.8,2.7-2.7C385.9,239.5,388.1,237.2,390.3,235z"/>
		<path class="st1" d="M497.6,130.8c4.3,1.7,5.6,5.5,7.6,9.4c0.4,0.8,0.8,1.6,1.2,2.4c6.6,13.3,10.6,27.2,13,41.8
			c0.2,0.8,0.3,1.7,0.5,2.5c1.9,17.3-0.1,34.4-4.3,51.2c-0.3,1.3-0.3,1.3-0.6,2.6c-3.2,11.4-8.5,23.7-15.7,33.2c-0.5,0-1,0-1.6,0
			c-1-1-1-1-2.2-2.5c-2.4-2.8-5-5.4-7.8-7.8c-6-5.5-11.8-11.3-17.5-17.1c-2-2-4-4.1-6.1-6.1c-0.4-0.5-0.9-0.9-1.4-1.4
			c-2.3-2.3-4.6-4.5-7.1-6.6c-3.1-2.7-6-5.5-8.9-8.5c-0.5-0.5-1-1-1.6-1.6c-1.6-1.6-3.3-3.3-4.9-4.9c-2.2-2.2-4.3-4.4-6.5-6.6
			c-0.7-0.7-0.7-0.7-1.5-1.5c-2.2-2.2-4.4-4.4-7-6.1c1.3-3.2,3.5-5.3,5.9-7.6c0.4-0.4,0.8-0.8,1.2-1.2c2.1-2.1,4.3-4.1,6.6-6.1
			c3.8-3.3,7.4-6.9,11-10.5c0.7-0.7,1.4-1.4,2.1-2.1c2.2-2.2,4.5-4.5,6.7-6.7c2.9-3,5.9-5.9,8.8-8.8c1-1,1-1,2-2
			c3.4-3.4,6.8-6.6,10.4-9.7c1.9-1.7,3.8-3.5,5.6-5.3c1.1-1.1,1.1-1.1,2.2-2.2c0.7-0.7,1.5-1.5,2.2-2.2c0.8-0.8,1.5-1.5,2.3-2.3
			C494,134.5,495.8,132.6,497.6,130.8z"/>
		<path class="st1" d="M283.7,130c4.4,3.6,8.4,7.5,12.4,11.6c0.7,0.7,1.3,1.3,2,2c2.8,2.8,5.5,5.6,8.3,8.3c2,2,4.1,4.1,6.1,6.1
			c0.6,0.6,1.2,1.2,1.9,1.9c2.7,2.7,5.4,5.3,8.3,7.8c3.7,3.2,7.1,6.6,10.5,10.1c0.7,0.7,1.4,1.4,2.1,2.1c2.2,2.2,4.3,4.3,6.5,6.5
			c1.5,1.5,2.9,2.9,4.4,4.4c3.6,3.6,7.2,7.2,10.8,10.8c-1.4,3-3.4,5.1-5.7,7.5c-0.4,0.4-0.8,0.8-1.3,1.3c-0.9,0.9-1.8,1.8-2.6,2.6
			c-1.3,1.3-2.7,2.6-4,4c-7,7-7,7-10.5,9.9c-4.8,4.1-9.2,8.8-13.6,13.3c-10.3,10.4-10.3,10.4-15.1,14.5c-3.8,3.4-7.3,7.1-10.9,10.7
			c-0.8,0.8-1.7,1.7-2.5,2.5c-2,2-4,4.1-6.1,6.1c-3.1-3-4.9-6-6.9-9.8c-0.3-0.6-0.7-1.3-1-2c-3.5-6.8-6-13.7-8.5-20.9
			c-0.4-1.1-0.4-1.1-0.8-2.2c-7-21.2-7-47.1-1.6-68.6c0.1-0.6,0.3-1.2,0.4-1.8C269.2,156.6,274.7,139,283.7,130z"/>
		<path class="st2" d="M673.5,90.3c5.4,2.7,8.7,5.5,12.6,10.1c1.4,1.7,1.4,1.7,3.8,3.1c0.8,1.7,0.8,1.7,1.6,3.8
			c0.8,2.1,1.4,3.8,2.8,5.5c1.3,1.8,1.6,3.3,2,5.5c0.4,2.2,0.8,4.1,1.5,6.2c-0.1,20.7-0.1,20.7-6.2,28c-0.3,0.9-0.6,1.7-1,2.6
			c-1.3,3.2-3.4,4.9-6,7c-1.7,1.4-1.7,1.4-3.7,3.5c-2.4,2.3-3.8,3.3-7.2,3.3C673.5,143,673.5,117,673.5,90.3z"/>
		<path class="st0" d="M869.8,179.7"/>
		<g>
			<path d="M1032.5,112.2v259.1h-71.7V112.2h-91v-62h253.6v62H1032.5z"/>
			<path d="M1323.3,307.9c35.2,0,64-13.9,86.4-41.8l45.9,47.3c-36.5,41-79.4,61.6-128.9,61.6c-49.5,0-90.2-15.6-122.2-46.9
				c-32-31.2-48-70.7-48-118.3c0-47.6,16.3-87.4,48.9-119.2c32.6-31.8,72.5-47.8,119.7-47.8c52.7,0,96.8,20.1,132.3,60.2l-44.6,50.5
				c-22.7-28.2-50.8-42.3-84.5-42.3c-27,0-50,8.8-69.1,26.4c-19.1,17.6-28.7,41.3-28.7,71.2c0,29.9,9,53.8,27.1,71.9
				C1275.6,298.8,1297.5,307.9,1323.3,307.9z"/>
			<path d="M1720.6,207.7h72.1v113.9c-31.9,35.5-76,53.3-132.3,53.3c-47.2,0-86.8-15.6-118.8-46.9c-32-31.2-48-70.7-48-118.3
				c0-47.6,16.3-87.4,48.9-119.2c32.6-31.8,72-47.8,118.1-47.8c46.1,0,86.1,15.2,120.1,45.5l-37.2,53.8
				c-14.4-12.6-27.6-21.2-39.7-26c-12.1-4.7-25.2-7.1-39.3-7.1c-27.3,0-50.2,9.3-68.9,27.8c-18.7,18.5-28,43-28,73.3
				c0,30.3,9,54.6,26.9,72.8c17.9,18.2,39.3,27.3,64.1,27.3s45.5-4.7,62-14.2V207.7z"/>
		</g>
	</g>
	<g>
		<path d="M803.9,498.1c-11.3,11-25.2,16.6-41.8,16.6c-16.5,0-30.5-5.5-41.8-16.6c-11.3-11-17-24.8-17-41.2c0-16.4,5.7-30.2,17-41.2
			c11.3-11,25.2-16.6,41.8-16.6c16.5,0,30.5,5.5,41.8,16.6c11.3,11,17,24.8,17,41.2C820.9,473.3,815.2,487,803.9,498.1z M795.4,457
			c0-10-3.2-18.5-9.6-25.5c-6.4-7-14.3-10.6-23.6-10.6c-9.3,0-17.2,3.5-23.6,10.6S729,447,729,457c0,10,3.2,18.5,9.6,25.4
			c6.4,7,14.3,10.5,23.6,10.5c9.3,0,17.2-3.5,23.6-10.5C792.2,475.4,795.4,466.9,795.4,457z"/>
		<path d="M920.2,401.7h25v111.8h-25L867,443.4v70.1h-25V401.7h23.4l54.9,72V401.7z"/>
		<path d="M972.7,513.5V401.7h25v89.6h47.7v22.2H972.7z"/>
		<path d="M1063.6,401.7h25v111.8h-25V401.7z"/>
		<path d="M1194.3,401.7h25v111.8h-25l-53.3-70.1v70.1h-25V401.7h23.4l54.9,72V401.7z"/>
		<path d="M1327.4,401.7v22.2h-55.7v23h50.1v21.3h-50.1v23.2h57.4v22.1h-82.4V401.7H1327.4z"/>
	</g>
</g>
</svg>
