<svg xmlns="http://www.w3.org/2000/svg" viewBox="0 0 388.42 224.76"><defs><style>.cls-1{fill-rule:evenodd;}</style></defs><g id="Layer_2" data-name="Layer 2"><g id="Layer_1-2" data-name="Layer 1"><path d="M252.9,54.92C238.23,39.73,216.83,31,194.21,31s-44,8.71-58.69,23.9a72.52,72.52,0,0,0-20.17,53.45l2.13,27.06c2,27.35,17.82,30.3,24.55,30.3a30.37,30.37,0,0,0,7.62-1,88.9,88.9,0,0,1,.3,10.55l0,4.86c-.05,3.53-.12,8.87,3.62,12.66a12.22,12.22,0,0,0,9,3.44h63.26a12.22,12.22,0,0,0,9-3.44c3.73-3.79,3.67-9.13,3.62-12.66l0-4.85a91,91,0,0,1,.31-10.56,30.55,30.55,0,0,0,7.62,1c6.73,0,22.6-2.95,24.55-30.24l2.12-26.83v-.29A72.52,72.52,0,0,0,252.9,54.92ZM260,107.78l-2.1,26.73c-.86,12-4.74,18.15-11.52,18.15a18.6,18.6,0,0,1-5.26-.86c-4.65-1.34-8.68-.45-11.52,2.42-4.32,4.35-4.28,11.39-4.21,21.13l0,4.93c0,.81,0,2-.05,2.86H211.59V167H201.13v16.13H187.28V167H176.83v16.13H163c-.06-.86-.05-2,0-2.87l0-4.94c.07-9.72.11-16.76-4.21-21.11-2.83-2.86-6.76-3.79-11.58-2.41a18.2,18.2,0,0,1-5.2.85c-6.78,0-10.66-6.11-11.52-18.2l-2.11-26.68A59.58,59.58,0,0,1,144.92,64c12.23-12.65,30.19-19.91,49.29-19.91S231.27,51.35,243.5,64A59.49,59.49,0,0,1,260,107.78Z"/><path d="M194.21,130.93c-3.13,0-10,15.06-11.3,17.57a3.86,3.86,0,0,0,5,5,15.13,15.13,0,0,0,6.27-4.39,15.12,15.12,0,0,0,6.28,4.39,3.86,3.86,0,0,0,5-5C204.25,146,197.35,130.93,194.21,130.93Z"/><path d="M108.81,92.51H39.27L30.76,84A18,18,0,0,0,5.27,109.48l1.06,1.06-1.06,1a18,18,0,0,0,25.49,25.49l8.52-8.52h70.25L107.91,108A83.5,83.5,0,0,1,108.81,92.51Z"/><path d="M280.52,108l0,.31-1.59,20.27h70.24l8.51,8.52a18,18,0,0,0,25.49-25.49l-1-1.06,1-1A18,18,0,0,0,357.66,84l-8.51,8.52H279.62A83.5,83.5,0,0,1,280.52,108Z"/><path d="M110.24,137.6l-.33-4.23L45.12,166.85,33.64,163.2A18,18,0,1,0,22.7,197.54l1.43.46-.46,1.42A18,18,0,0,0,58,210.36l3.65-11.48,62-32C117.37,162.69,111.43,154.31,110.24,137.6Z"/><path d="M263.1,167.83l63.64,32.9,3.66,11.47a18,18,0,1,0,34.34-10.94l-.45-1.42,1.42-.45A18,18,0,1,0,354.77,165L343.3,168.7l-64.91-33.55-.2,2.51C276.89,155.79,270,164.1,263.1,167.83Z"/><path class="cls-1" d="M363.87,25.37l-1.42-.45.45-1.43a18,18,0,0,0-34.35-10.94L324.9,24,305.66,34c-.06.1-.1.2-.16.3L283.38,70.5a21.79,21.79,0,0,1-7.53,7,80.64,80.64,0,0,1,3,10.9l62.56-32.34,11.48,3.65a18,18,0,0,0,10.94-34.34Z"/><path class="cls-1" d="M105,70.5,82.92,34.27c-.07-.1-.11-.2-.17-.3L63.52,24,59.86,12.55A18,18,0,0,0,25.52,23.49L26,24.92l-1.42.45A18,18,0,1,0,35.49,59.72L47,56.06,109.54,88.4a79.07,79.07,0,0,1,3-10.89A21.76,21.76,0,0,1,105,70.5Z"/><path class="cls-1" d="M147,106.32l-1.36,9.49a18.15,18.15,0,0,0,36.11,3.79l1.07-7.48L149.3,99.25A18.1,18.1,0,0,0,147,106.32Z"/><path class="cls-1" d="M241.39,106.32a18.1,18.1,0,0,0-2.27-7.07l-33.55,12.87,1.06,7.48a18.15,18.15,0,1,0,36.11-3.79Z"/><path class="cls-1" d="M269.08,15.64,261,17.85c-4.4,1.2-9.71.73-13.19-1.17l-23.87-13c-6.7,3.55-17.5,5.85-29.69,5.85s-23-2.3-29.7-5.85l-23.87,13c-3.47,1.9-8.79,2.37-13.19,1.17l-8.12-2.21C101.8,10.86,82.41,20,88.61,30.16l21,34.33c4.67,7.63,17.77,12.78,32.52,12.78H246.29c14.76,0,27.86-5.15,32.52-12.78l21-34.33C306,20,286.62,10.86,269.08,15.64Z"/><path d="M177.67,36.28c0-5.88,0-8.81.7-9.8s3.45-1.94,9-3.83l1.06-.36c2.88-1,4.32-1.48,5.81-1.48s2.93.5,5.81,1.48l1,.36c5.52,1.89,8.28,2.84,9,3.83s.69,3.92.69,9.8v2.89c0,10.36-7.79,15.39-12.67,17.52a9,9,0,0,1-7.72,0c-4.89-2.13-12.68-7.16-12.68-17.52Z"/></g></g></svg>