<svg xmlns="http://www.w3.org/2000/svg" viewBox="0 0 393.35 165.19"><g id="Layer_2" data-name="Layer 2"><g id="Layer_1-2" data-name="Layer 1"><path d="M255.36,23.9C240.69,8.71,219.29,0,196.67,0s-44,8.71-58.68,23.89a72.57,72.57,0,0,0-20.18,53.46l2.13,27.06c2,27.34,17.82,30.3,24.55,30.3a30.39,30.39,0,0,0,7.63-1,91.2,91.2,0,0,1,.29,10.55l0,4.86c0,3.52-.12,8.87,3.62,12.65a12.19,12.19,0,0,0,9,3.45H228.3a12.2,12.2,0,0,0,9-3.44c3.74-3.79,3.67-9.13,3.63-12.66l0-4.85a91.19,91.19,0,0,1,.3-10.56,30.62,30.62,0,0,0,7.62,1c6.73,0,22.6-3,24.55-30.25l2.12-26.83v-.28A72.52,72.52,0,0,0,255.36,23.9Zm7.12,52.86-2.11,26.72c-.86,12-4.74,18.16-11.52,18.16a18.64,18.64,0,0,1-5.26-.87c-4.65-1.34-8.67-.44-11.52,2.42-4.32,4.36-4.28,11.4-4.21,21.14l0,4.93c0,.8,0,2,0,2.86H214.05V136H203.6v16.14H189.74V136H179.29v16.14H165.5c-.07-.87-.06-2.06-.05-2.87l0-4.94c.07-9.73.12-16.76-4.21-21.12-2.83-2.85-6.76-3.79-11.57-2.4a18.57,18.57,0,0,1-5.21.85c-6.78,0-10.65-6.11-11.52-18.21l-2.11-26.67A59.61,59.61,0,0,1,147.38,33c12.23-12.65,30.19-19.91,49.29-19.91S233.74,20.33,246,33A59.53,59.53,0,0,1,262.48,76.76Z"/><path d="M196.68,99.9c-3.14,0-10.05,15.07-11.31,17.58a3.86,3.86,0,0,0,5,5,15.21,15.21,0,0,0,6.28-4.39A15.13,15.13,0,0,0,203,122.5a3.86,3.86,0,0,0,5-5C206.71,115,199.82,99.9,196.68,99.9Z"/><path d="M169.44,59.13a18.16,18.16,0,0,0-19.95,16.16l-1.35,9.5a18.15,18.15,0,0,0,36.11,3.78l1.35-9.49A18.16,18.16,0,0,0,169.44,59.13Z"/><path d="M243.85,75.29a18.15,18.15,0,1,0-36.1,3.79l1.34,9.49a18.16,18.16,0,0,0,36.12-3.78Z"/><path d="M109,85.91,37.59,104,27.24,97.85a18,18,0,1,0-18.44,31l1.28.76-.76,1.28a18,18,0,0,0,31,18.45L46.45,139l71.4-18.1Z"/><path d="M384.55,35.74,383.27,35l.76-1.28a18,18,0,0,0-31-18.44L346.9,25.6,275.5,43.7l8.86,35,71.4-18.1,10.35,6.16a18,18,0,0,0,18.44-31Z"/><path d="M284.36,85.91l71.4,18.1,10.35-6.16a18,18,0,0,1,18.44,31l-1.28.76.76,1.28a18,18,0,1,1-31,18.45L346.9,139l-71.4-18.1Z"/><path d="M8.8,35.74,10.08,35l-.76-1.28a18,18,0,0,1,31-18.44L46.45,25.6l71.4,18.1-8.86,35-71.4-18.1L27.24,66.71a18,18,0,1,1-18.44-31Z"/></g></g></svg>