<svg xmlns="http://www.w3.org/2000/svg" viewBox="0 0 397.64 195.56"><defs><style>.cls-1{fill-rule:evenodd;}</style></defs><g id="Layer_2" data-name="Layer 2"><g id="Layer_1-2" data-name="Layer 1"><path class="cls-1" d="M174.58,5.47c13.39-7.29,35.09-7.29,48.48,0l29.33,16c3.47,1.9,8.79,2.37,13.18,1.17l8.12-2.22c17.54-4.78,36.93,4.39,30.73,14.53l-21,34.33c-4.67,7.63-17.77,12.78-32.52,12.78H146.74c-14.76,0-27.86-5.15-32.52-12.78l-21-34.33C87,24.8,106.41,15.63,124,20.41l8.12,2.22c4.4,1.2,9.71.73,13.19-1.17Z"/><path d="M257.51,54.27c-14.67-15.18-36.07-23.89-58.69-23.89s-44,8.71-58.68,23.89A72.53,72.53,0,0,0,120,107.73l2.13,27.06c2,27.34,17.82,30.29,24.55,30.29a31,31,0,0,0,7.63-1,91.09,91.09,0,0,1,.29,10.54l0,4.86c0,3.53-.12,8.87,3.62,12.66a12.23,12.23,0,0,0,9,3.44h63.25a12.2,12.2,0,0,0,9-3.44c3.74-3.79,3.67-9.13,3.62-12.66l0-4.85a90.82,90.82,0,0,1,.31-10.55,30.53,30.53,0,0,0,7.62,1c6.73,0,22.6-3,24.55-30.24L277.67,108v-.28A72.56,72.56,0,0,0,257.51,54.27Zm7.12,52.86-2.11,26.73c-.86,12-4.74,18.16-11.52,18.16a18.64,18.64,0,0,1-5.26-.87c-4.65-1.34-8.67-.44-11.52,2.42-4.32,4.35-4.28,11.39-4.21,21.13l0,4.93c0,.81,0,2,0,2.87H216.2V166.36H205.75V182.5H191.89V166.36H181.44V182.5h-13.8c-.06-.87,0-2.06,0-2.88l0-4.93c.07-9.73.11-16.76-4.21-21.12-2.83-2.85-6.76-3.79-11.57-2.4a18.62,18.62,0,0,1-5.21.85c-6.78,0-10.65-6.11-11.52-18.21L133,107.13a59.58,59.58,0,0,1,16.52-43.78c12.23-12.65,30.19-19.91,49.29-19.91s37.07,7.26,49.29,19.91A59.54,59.54,0,0,1,264.63,107.13Z"/><path d="M198.82,130.28c-3.13,0-10,15.06-11.3,17.57a3.86,3.86,0,0,0,5,5,15.13,15.13,0,0,0,6.27-4.39,15.12,15.12,0,0,0,6.28,4.39,3.86,3.86,0,0,0,5-5C208.86,145.34,202,130.28,198.82,130.28Z"/><path d="M112.93,91.86H39.27l-8.51-8.52A18,18,0,0,0,5.27,108.83l1.06,1.06-1.06,1a18,18,0,0,0,25.49,25.49l8.52-8.51h73.65Z"/><path d="M392.37,110.94l-1.05-1,1.05-1.06a18,18,0,0,0-25.49-25.49l-8.51,8.52H284.71v36.05h73.66l8.52,8.52a18,18,0,0,0,25.48-25.49Z"/><path class="cls-1" d="M151.6,105.71l-1.35,9.49A18.15,18.15,0,1,0,186.36,119l1.06-7.47L153.88,98.64A18.06,18.06,0,0,0,151.6,105.71Z"/><path class="cls-1" d="M246,105.71a17.9,17.9,0,0,0-2.28-7.07l-33.55,12.87L211.2,119a18.16,18.16,0,1,0,36.12-3.78Z"/></g></g></svg>