<svg xmlns="http://www.w3.org/2000/svg" viewBox="0 0 388.42 229.32"><defs><style>.cls-1{fill-rule:evenodd;}</style></defs><g id="Layer_2" data-name="Layer 2"><g id="Layer_1-2" data-name="Layer 1"><path d="M252.9,59.49c-14.67-15.19-36.07-23.9-58.69-23.9s-44,8.71-58.69,23.89a72.56,72.56,0,0,0-20.17,53.46L117.48,140c2,27.34,17.82,30.3,24.55,30.3a30.84,30.84,0,0,0,7.62-1,88.72,88.72,0,0,1,.3,10.54l0,4.86c-.05,3.53-.12,8.87,3.62,12.66a12.22,12.22,0,0,0,9,3.44h63.26a12.26,12.26,0,0,0,9-3.43c3.73-3.8,3.67-9.13,3.62-12.67l0-4.85a90.82,90.82,0,0,1,.31-10.55,30.55,30.55,0,0,0,7.62,1c6.73,0,22.6-3,24.55-30.25l2.12-26.83v-.28A72.52,72.52,0,0,0,252.9,59.49ZM260,112.34l-2.1,26.73c-.86,12.05-4.74,18.16-11.52,18.16a18.64,18.64,0,0,1-5.26-.87c-4.65-1.34-8.68-.44-11.52,2.42-4.32,4.36-4.28,11.39-4.21,21.13l0,4.93c0,.81,0,2-.05,2.87H211.59V171.57H201.13v16.14H187.28V171.57H176.83v16.14H163c-.06-.87-.05-2.06,0-2.88l0-4.93c.07-9.73.11-16.76-4.21-21.12-2.83-2.85-6.76-3.79-11.58-2.4a18.56,18.56,0,0,1-5.2.85c-6.78,0-10.66-6.11-11.52-18.21l-2.11-26.68a59.54,59.54,0,0,1,16.52-43.77c12.23-12.66,30.19-19.92,49.29-19.92s37.06,7.26,49.29,19.92A59.46,59.46,0,0,1,260,112.34Z"/><path d="M194.21,135.49c-3.13,0-10,15.06-11.3,17.57a3.87,3.87,0,0,0,5,5,15.11,15.11,0,0,0,6.27-4.4,15.1,15.1,0,0,0,6.28,4.4,3.86,3.86,0,0,0,5-5C204.25,150.55,197.35,135.49,194.21,135.49Z"/><path d="M108.81,97.07H39.27l-8.51-8.52A18,18,0,0,0,5.27,114l1.06,1.06-1.06,1.05a18,18,0,0,0,25.49,25.49l8.52-8.51h70.25l-1.62-20.58A83.61,83.61,0,0,1,108.81,97.07Z"/><path d="M280.52,112.55l0,.31-1.59,20.27h70.24l8.51,8.51a18,18,0,0,0,25.49-25.49l-1-1.05,1-1.06a18,18,0,0,0-25.49-25.49l-8.51,8.52H279.62A83.61,83.61,0,0,1,280.52,112.55Z"/><path d="M110.24,142.16l-.33-4.23L45.12,171.42l-11.48-3.66A18,18,0,0,0,22.7,202.11l1.43.45L23.67,204A18,18,0,1,0,58,214.92l3.65-11.47,62-32C117.37,167.26,111.43,158.87,110.24,142.16Z"/><path d="M263.1,172.4l63.64,32.89,3.66,11.48a18,18,0,0,0,34.34-10.94l-.45-1.42,1.42-.46a18,18,0,1,0-10.94-34.34l-11.47,3.65-64.91-33.55-.2,2.51C276.89,160.36,270,168.66,263.1,172.4Z"/><path class="cls-1" d="M170,5.47c13.39-7.29,35.09-7.29,48.48,0l29.32,16c3.48,1.9,8.79,2.37,13.19,1.17l8.12-2.22c17.54-4.78,36.93,4.39,30.73,14.53l-21,34.33c-4.66,7.63-17.76,12.78-32.51,12.78H142.13c-14.76,0-27.86-5.15-32.52-12.78l-21-34.33c-6.2-10.14,13.18-19.31,30.72-14.53l8.12,2.22c4.4,1.2,9.71.73,13.19-1.17Z"/><path class="cls-1" d="M363.87,29.93l-1.42-.45.45-1.42a18,18,0,0,0-34.35-10.94L324.9,28.59l-19.24,10c-.06.1-.1.2-.16.3L283.38,75.06a21.91,21.91,0,0,1-7.53,7,80.09,80.09,0,0,1,3,10.89l62.56-32.34,11.48,3.66a18,18,0,0,0,10.94-34.35Z"/><path class="cls-1" d="M105,75.06,82.92,38.84c-.07-.1-.11-.2-.17-.3L63.52,28.59,59.86,17.12A18,18,0,0,0,25.52,28.06L26,29.48l-1.42.45A18,18,0,1,0,35.49,64.28L47,60.62,109.54,93a79.2,79.2,0,0,1,3-10.9A21.67,21.67,0,0,1,105,75.06Z"/><path class="cls-1" d="M147,110.88l-1.36,9.49a18.15,18.15,0,0,0,36.11,3.79l1.07-7.47L149.3,103.81A18.15,18.15,0,0,0,147,110.88Z"/><path class="cls-1" d="M241.39,110.88a18.1,18.1,0,0,0-2.27-7.07l-33.55,12.87,1.06,7.48a18.15,18.15,0,1,0,36.11-3.79Z"/></g></g></svg>