<svg xmlns="http://www.w3.org/2000/svg" viewBox="0 0 213.55 187.11"><defs><style>.cls-1{fill-rule:evenodd;}</style></defs><g id="Layer_2" data-name="Layer 2"><g id="Layer_1-2" data-name="Layer 1"><path d="M165.47,45.83c-14.68-15.19-36.07-23.9-58.69-23.9s-44,8.71-58.69,23.89A72.56,72.56,0,0,0,27.92,99.28l2.13,27.06c1.95,27.34,17.82,30.3,24.55,30.3a30.84,30.84,0,0,0,7.62-1,88.72,88.72,0,0,1,.3,10.54l0,4.86c0,3.53-.11,8.87,3.63,12.66a12.22,12.22,0,0,0,9,3.44H138.4a12.29,12.29,0,0,0,9-3.43c3.73-3.8,3.67-9.13,3.62-12.67l0-4.85a93.3,93.3,0,0,1,.3-10.55,30.69,30.69,0,0,0,7.63,1c6.73,0,22.6-3,24.55-30.25l2.11-26.83,0-.28A72.52,72.52,0,0,0,165.47,45.83Zm7.11,52.85-2.1,26.73c-.86,12.05-4.74,18.16-11.52,18.16a18.53,18.53,0,0,1-5.26-.87c-4.65-1.34-8.68-.44-11.52,2.42-4.33,4.36-4.28,11.39-4.21,21.13l0,4.93c0,.81,0,2,0,2.87H124.16V157.91H113.7v16.14H99.85V157.91H89.4v16.14H75.6c-.06-.87,0-2.06,0-2.88l0-4.93c.07-9.73.11-16.76-4.21-21.12-2.83-2.85-6.76-3.79-11.58-2.4a18.56,18.56,0,0,1-5.2.85c-6.79,0-10.66-6.11-11.52-18.21L41,98.68A59.5,59.5,0,0,1,57.49,54.91C69.71,42.25,87.68,35,106.78,35s37.06,7.26,49.29,19.92A59.5,59.5,0,0,1,172.58,98.68Z"/><path d="M106.78,121.83c-3.13,0-10,15.06-11.3,17.57a3.87,3.87,0,0,0,5,5,15.1,15.1,0,0,0,6.28-4.4,15.1,15.1,0,0,0,6.28,4.4,3.86,3.86,0,0,0,5-5C116.82,136.89,109.92,121.83,106.78,121.83Z"/><path class="cls-1" d="M59.56,97.26l-1.35,9.49a18.15,18.15,0,0,0,36.11,3.79l1.06-7.48L61.83,90.19A18.1,18.1,0,0,0,59.56,97.26Z"/><path class="cls-1" d="M153.92,97.26a18.1,18.1,0,0,0-2.27-7.07L118.1,103.06l1.06,7.48a18.15,18.15,0,1,0,36.11-3.79Z"/><path class="cls-1" d="M181.65,12l-8.12,2.21c-4.4,1.2-9.71.73-13.19-1.17L136.47,0c-6.7,3.55-17.5,5.85-29.69,5.85s-23-2.3-29.7-5.85L53.21,13c-3.48,1.9-8.79,2.37-13.19,1.17L31.9,12C14.37,7.18-5,16.35,1.18,26.49l21,34.33C26.84,68.45,39.94,73.6,54.69,73.6H158.86c14.76,0,27.85-5.15,32.52-12.78l21-34.33C218.57,16.35,199.19,7.18,181.65,12Z"/><path d="M90.24,32.6c0-5.87,0-8.81.69-9.8s3.46-1.93,9-3.82l1.06-.36c2.88-1,4.31-1.48,5.81-1.48s2.93.49,5.81,1.48l1,.36c5.52,1.89,8.28,2.84,9,3.82s.69,3.93.69,9.8v2.9c0,10.36-7.79,15.38-12.67,17.52a9.12,9.12,0,0,1-7.73,0C98,50.88,90.24,45.86,90.24,35.5Z"/></g></g></svg>