<svg xmlns="http://www.w3.org/2000/svg" viewBox="0 0 397.64 165.19"><g id="Layer_2" data-name="Layer 2"><g id="Layer_1-2" data-name="Layer 1"><path d="M257.51,23.9C242.84,8.71,221.44,0,198.82,0s-44,8.71-58.68,23.89A72.53,72.53,0,0,0,120,77.35l2.13,27.06c2,27.34,17.82,30.3,24.55,30.3a30.51,30.51,0,0,0,7.63-1,91.2,91.2,0,0,1,.29,10.55l0,4.86c0,3.52-.12,8.87,3.62,12.65a12.19,12.19,0,0,0,9,3.45h63.25a12.2,12.2,0,0,0,9-3.44c3.74-3.79,3.67-9.13,3.62-12.66l0-4.85a91,91,0,0,1,.31-10.56,30.55,30.55,0,0,0,7.62,1c6.73,0,22.6-3,24.55-30.25l2.12-26.83v-.28A72.52,72.52,0,0,0,257.51,23.9Zm7.12,52.86-2.11,26.72c-.86,12-4.74,18.16-11.52,18.16a18.64,18.64,0,0,1-5.26-.87c-4.65-1.34-8.67-.44-11.52,2.42-4.32,4.36-4.28,11.4-4.21,21.14l0,4.93c0,.8,0,2,0,2.86H216.2V136H205.75v16.14H191.89V136H181.44v16.14h-13.8c-.06-.87,0-2.06,0-2.87l0-4.94c.07-9.73.11-16.76-4.21-21.12-2.83-2.85-6.76-3.79-11.57-2.4a18.62,18.62,0,0,1-5.21.85c-6.78,0-10.65-6.11-11.52-18.21L133,76.76A59.57,59.57,0,0,1,149.53,33c12.23-12.65,30.19-19.91,49.29-19.91S235.89,20.33,248.11,33A59.53,59.53,0,0,1,264.63,76.76Z"/><path d="M198.82,99.9c-3.13,0-10,15.07-11.3,17.58a3.86,3.86,0,0,0,5,5,15.13,15.13,0,0,0,6.27-4.39,15.12,15.12,0,0,0,6.28,4.39,3.86,3.86,0,0,0,5-5C208.86,115,202,99.9,198.82,99.9Z"/><path d="M171.59,59.13a18.16,18.16,0,0,0-20,16.16l-1.35,9.5a18.15,18.15,0,0,0,36.11,3.78l1.35-9.49A18.16,18.16,0,0,0,171.59,59.13Z"/><path d="M246,75.29a18.15,18.15,0,0,0-36.11,3.79l1.35,9.49a18.15,18.15,0,0,0,36.11-3.78Z"/><path d="M112.93,61.48H39.27L30.76,53A18,18,0,0,0,5.27,78.46l1.06,1.05L5.27,80.57a18,18,0,0,0,25.49,25.49l8.52-8.52h73.65Z"/><path d="M392.37,80.57l-1.05-1.06,1.05-1.05A18,18,0,0,0,366.88,53l-8.51,8.51H284.71V97.54h73.66l8.52,8.52a18,18,0,0,0,25.48-25.49Z"/></g></g></svg>