<svg xmlns="http://www.w3.org/2000/svg" viewBox="0 0 388.42 224.76"><g id="Layer_2" data-name="Layer 2"><g id="Layer_1-2" data-name="Layer 1"><path d="M252.9,54.92C238.23,39.73,216.83,31,194.21,31s-44,8.71-58.69,23.9a72.52,72.52,0,0,0-20.17,53.45l2.13,27.06c2,27.35,17.82,30.3,24.55,30.3a30.37,30.37,0,0,0,7.62-1,88.9,88.9,0,0,1,.3,10.55l0,4.86c-.05,3.53-.12,8.87,3.62,12.66a12.22,12.22,0,0,0,9,3.44h63.26a12.22,12.22,0,0,0,9-3.44c3.73-3.79,3.67-9.13,3.62-12.66l0-4.85a91,91,0,0,1,.31-10.56,30.55,30.55,0,0,0,7.62,1c6.73,0,22.6-2.95,24.55-30.24l2.12-26.83v-.29A72.52,72.52,0,0,0,252.9,54.92ZM260,107.78l-2.1,26.73c-.86,12-4.74,18.15-11.52,18.15a18.6,18.6,0,0,1-5.26-.86c-4.65-1.34-8.68-.45-11.52,2.42-4.32,4.35-4.28,11.39-4.21,21.13l0,4.93c0,.81,0,2-.05,2.86H211.59V167H201.13v16.13H187.28V167H176.83v16.13H163c-.06-.86-.05-2,0-2.87l0-4.94c.07-9.72.11-16.76-4.21-21.11-2.83-2.86-6.76-3.79-11.58-2.41a18.2,18.2,0,0,1-5.2.85c-6.78,0-10.66-6.11-11.52-18.2l-2.11-26.68A59.58,59.58,0,0,1,144.92,64c12.23-12.65,30.19-19.91,49.29-19.91S231.27,51.35,243.5,64A59.49,59.49,0,0,1,260,107.78Z"/><path d="M194.21,130.93c-3.13,0-10,15.06-11.3,17.57a3.86,3.86,0,0,0,5,5,15.13,15.13,0,0,0,6.27-4.39,15.12,15.12,0,0,0,6.28,4.39,3.86,3.86,0,0,0,5-5C204.25,146,197.35,130.93,194.21,130.93Z"/><path d="M167,90.15A18.17,18.17,0,0,0,147,106.32l-1.35,9.49a18.15,18.15,0,1,0,36.11,3.78l1.35-9.49A18.16,18.16,0,0,0,167,90.15Z"/><path d="M241.39,106.32a18.15,18.15,0,1,0-36.11,3.78l1.35,9.49a18.15,18.15,0,1,0,36.11-3.78Z"/><path d="M108.81,92.51H39.27L30.76,84A18,18,0,0,0,5.27,109.48l1.06,1.06-1.06,1a18,18,0,0,0,25.49,25.49l8.52-8.52h70.25L107.91,108A83.5,83.5,0,0,1,108.81,92.51Z"/><path d="M280.52,108l0,.31-1.59,20.27h70.24l8.51,8.52a18,18,0,0,0,25.49-25.49l-1-1.06,1-1A18,18,0,0,0,357.66,84l-8.51,8.52H279.62A83.5,83.5,0,0,1,280.52,108Z"/><path d="M110.24,137.6l-.33-4.23L45.12,166.85,33.64,163.2A18,18,0,1,0,22.7,197.54l1.43.46-.46,1.42A18,18,0,0,0,58,210.36l3.65-11.48,62-32C117.37,162.69,111.43,154.31,110.24,137.6Z"/><path d="M341.45,56.06l11.48,3.65a18,18,0,0,0,10.94-34.34l-1.42-.45.45-1.43a18,18,0,0,0-34.35-10.94L324.9,24,263.78,55.62A78.17,78.17,0,0,1,278.89,88.4Z"/><path d="M263.1,167.83l63.64,32.9,3.66,11.47a18,18,0,1,0,34.34-10.94l-.45-1.42,1.42-.45A18,18,0,1,0,354.77,165L343.3,168.7l-64.91-33.55-.2,2.51C276.89,155.79,270,164.1,263.1,167.83Z"/><path d="M63.52,24,59.86,12.55A18,18,0,0,0,25.52,23.49L26,24.92l-1.42.45A18,18,0,1,0,35.49,59.72L47,56.06,109.54,88.4a78.39,78.39,0,0,1,15.1-32.78Z"/></g></g></svg>