<svg xmlns="http://www.w3.org/2000/svg" viewBox="0 0 213.55 195.56"><defs><style>.cls-1{fill-rule:evenodd;}</style></defs><g id="Layer_2" data-name="Layer 2"><g id="Layer_1-2" data-name="Layer 1"><path class="cls-1" d="M82.54,5.47c13.38-7.29,35.09-7.29,48.47,0l29.33,16c3.48,1.9,8.79,2.37,13.19,1.17l8.12-2.22c17.54-4.78,36.92,4.39,30.72,14.53l-21,34.33c-4.67,7.63-17.76,12.78-32.52,12.78H54.69c-14.75,0-27.85-5.15-32.52-12.78l-21-34.33C-5,24.8,14.37,15.63,31.9,20.41L40,22.63c4.4,1.2,9.72.73,13.19-1.17Z"/><path d="M165.47,54.27c-14.68-15.18-36.07-23.89-58.7-23.89s-44,8.71-58.68,23.89a72.57,72.57,0,0,0-20.18,53.46l2.14,27.06C32,162.13,47.87,165.08,54.6,165.08a30.81,30.81,0,0,0,7.62-1,93.19,93.19,0,0,1,.3,10.54l0,4.86c0,3.53-.11,8.87,3.63,12.66a12.19,12.19,0,0,0,9,3.44H138.4a12.2,12.2,0,0,0,9-3.44c3.74-3.79,3.67-9.13,3.63-12.66l0-4.85a91,91,0,0,1,.3-10.55,30.59,30.59,0,0,0,7.62,1c6.73,0,22.6-3,24.55-30.24L185.62,108l0-.28A72.6,72.6,0,0,0,165.47,54.27Zm7.11,52.86-2.1,26.73c-.87,12-4.75,18.16-11.53,18.16a18.64,18.64,0,0,1-5.26-.87c-4.64-1.34-8.67-.44-11.51,2.42-4.33,4.35-4.28,11.39-4.21,21.13l0,4.93c0,.81,0,2,0,2.87h-13.8V166.36H113.7V182.5H99.85V166.36H89.39V182.5H75.6c-.07-.87,0-2.06,0-2.88l0-4.93c.07-9.73.12-16.76-4.21-21.12-2.83-2.85-6.76-3.79-11.57-2.4a18.56,18.56,0,0,1-5.2.85c-6.79,0-10.66-6.11-11.53-18.21L41,107.13A59.62,59.62,0,0,1,57.48,63.35c12.23-12.65,30.2-19.91,49.29-19.91s37.07,7.26,49.29,19.91A59.54,59.54,0,0,1,172.58,107.13Z"/><path d="M106.78,130.28c-3.14,0-10,15.06-11.31,17.57a3.87,3.87,0,0,0,5,5,15.12,15.12,0,0,0,6.28-4.39,15.13,15.13,0,0,0,6.27,4.39,3.86,3.86,0,0,0,5-5C116.81,145.34,109.92,130.28,106.78,130.28Z"/><path class="cls-1" d="M59.56,105.71,58.2,115.2A18.15,18.15,0,1,0,94.31,119l1.07-7.47L61.83,98.64A18,18,0,0,0,59.56,105.71Z"/><path class="cls-1" d="M153.92,105.71a18,18,0,0,0-2.27-7.07L118.1,111.51l1.06,7.47a18.15,18.15,0,1,0,36.11-3.78Z"/></g></g></svg>