<svg xmlns="http://www.w3.org/2000/svg" viewBox="0 0 157.81 165.19"><g id="Layer_2" data-name="Layer 2"><g id="Layer_1-2" data-name="Layer 1"><path d="M137.6,23.9C122.92,8.71,101.53,0,78.9,0s-44,8.71-58.68,23.89A72.56,72.56,0,0,0,.05,77.35l2.13,27.06c1.94,27.34,17.82,30.3,24.55,30.3a30.37,30.37,0,0,0,7.62-1,93.3,93.3,0,0,1,.3,10.55l0,4.86c0,3.52-.11,8.87,3.63,12.65a12.16,12.16,0,0,0,9,3.45h63.25a12.25,12.25,0,0,0,9-3.44c3.73-3.79,3.67-9.13,3.62-12.66l0-4.85a91.19,91.19,0,0,1,.3-10.56,30.69,30.69,0,0,0,7.63,1c6.72,0,22.59-3,24.55-30.25l2.11-26.83,0-.28A72.56,72.56,0,0,0,137.6,23.9Zm7.11,52.86-2.1,26.72c-.86,12-4.74,18.16-11.53,18.16a18.52,18.52,0,0,1-5.25-.87c-4.65-1.34-8.68-.44-11.52,2.42-4.33,4.36-4.28,11.4-4.21,21.14l0,4.93c0,.8,0,2,0,2.86H96.29V136H85.83v16.14H72V136H61.53v16.14H47.73c-.07-.87,0-2.06,0-2.87l0-4.94c.08-9.73.12-16.76-4.2-21.12-2.83-2.85-6.76-3.79-11.58-2.4a18.56,18.56,0,0,1-5.2.85c-6.79,0-10.66-6.11-11.53-18.21L13.1,76.76A59.53,59.53,0,0,1,29.62,33C41.84,20.33,59.81,13.07,78.9,13.07S116,20.33,128.2,33A59.52,59.52,0,0,1,144.71,76.76Z"/><path d="M78.91,99.9c-3.14,0-10,15.07-11.3,17.58a3.86,3.86,0,0,0,5,5,15.12,15.12,0,0,0,6.28-4.39,15.12,15.12,0,0,0,6.28,4.39,3.86,3.86,0,0,0,5-5C89,115,82.05,99.9,78.91,99.9Z"/><path d="M51.67,59.13A18.15,18.15,0,0,0,31.73,75.29l-1.36,9.5a18.15,18.15,0,0,0,36.11,3.78l1.35-9.49A18.14,18.14,0,0,0,51.67,59.13Z"/><path d="M126.09,75.29A18.15,18.15,0,0,0,90,79.08l1.35,9.49a18.15,18.15,0,0,0,36.11-3.78Z"/></g></g></svg>