<svg xmlns="http://www.w3.org/2000/svg" viewBox="0 0 397.64 187.11"><defs><style>.cls-1{fill-rule:evenodd;}</style></defs><g id="Layer_2" data-name="Layer 2"><g id="Layer_1-2" data-name="Layer 1"><path d="M257.51,45.83c-14.67-15.19-36.07-23.9-58.69-23.9s-44,8.71-58.68,23.89A72.53,72.53,0,0,0,120,99.28l2.13,27.06c2,27.34,17.82,30.3,24.55,30.3a31,31,0,0,0,7.63-1,91.09,91.09,0,0,1,.29,10.54l0,4.86c0,3.53-.12,8.87,3.62,12.66a12.23,12.23,0,0,0,9,3.44h63.25a12.24,12.24,0,0,0,9-3.43c3.74-3.8,3.67-9.13,3.62-12.67l0-4.85a90.82,90.82,0,0,1,.31-10.55,30.55,30.55,0,0,0,7.62,1c6.73,0,22.6-3,24.55-30.25l2.12-26.83v-.28A72.52,72.52,0,0,0,257.51,45.83Zm7.12,52.85-2.11,26.73c-.86,12.05-4.74,18.16-11.52,18.16a18.64,18.64,0,0,1-5.26-.87c-4.65-1.34-8.67-.44-11.52,2.42-4.32,4.36-4.28,11.39-4.21,21.13l0,4.93c0,.81,0,2,0,2.87H216.2V157.91H205.75v16.14H191.89V157.91H181.44v16.14h-13.8c-.06-.87,0-2.06,0-2.88l0-4.93c.07-9.73.11-16.76-4.21-21.12-2.83-2.85-6.76-3.79-11.57-2.4a18.62,18.62,0,0,1-5.21.85c-6.78,0-10.65-6.11-11.52-18.21L133,98.68a59.54,59.54,0,0,1,16.52-43.77C161.76,42.25,179.72,35,198.82,35s37.07,7.26,49.29,19.92A59.5,59.5,0,0,1,264.63,98.68Z"/><path d="M198.82,121.83c-3.13,0-10,15.06-11.3,17.57a3.87,3.87,0,0,0,5,5,15.11,15.11,0,0,0,6.27-4.4,15.1,15.1,0,0,0,6.28,4.4,3.86,3.86,0,0,0,5-5C208.86,136.89,202,121.83,198.82,121.83Z"/><path d="M112.93,83.41H39.27l-8.51-8.52A18,18,0,0,0,5.27,100.38l1.06,1.06-1.06,1A18,18,0,0,0,30.76,128l8.52-8.51h73.65Z"/><path d="M392.37,102.49l-1.05-1,1.05-1.06a18,18,0,1,0-25.49-25.49l-8.51,8.52H284.71v36.06h73.66l8.52,8.51a18,18,0,0,0,25.48-25.49Z"/><path class="cls-1" d="M151.6,97.26l-1.35,9.49a18.15,18.15,0,0,0,36.11,3.79l1.06-7.48L153.88,90.19A18.11,18.11,0,0,0,151.6,97.26Z"/><path class="cls-1" d="M246,97.26a18,18,0,0,0-2.28-7.07l-33.55,12.87,1.06,7.48a18.16,18.16,0,0,0,36.12-3.79Z"/><path class="cls-1" d="M273.69,12l-8.12,2.21c-4.4,1.2-9.71.73-13.19-1.17L228.51,0c-6.69,3.55-17.5,5.85-29.69,5.85s-23-2.3-29.7-5.85L145.26,13c-3.48,1.9-8.79,2.37-13.19,1.17L124,12C106.41,7.18,87,16.35,93.22,26.49l21,34.33C118.88,68.45,132,73.6,146.73,73.6H250.9c14.76,0,27.86-5.15,32.52-12.78l21-34.33C310.61,16.35,291.23,7.18,273.69,12Z"/><path d="M182.28,32.6c0-5.87,0-8.81.7-9.8s3.45-1.93,9-3.82l1-.36c2.88-1,4.32-1.48,5.81-1.48s2.93.49,5.81,1.48l1.05.36c5.52,1.89,8.29,2.84,9,3.82s.69,3.93.69,9.8v2.9c0,10.36-7.78,15.38-12.67,17.52A9.09,9.09,0,0,1,195,53c-4.89-2.14-12.68-7.16-12.68-17.52Z"/></g></g></svg>