<svg xmlns="http://www.w3.org/2000/svg" viewBox="0 0 393.35 190.42"><defs><style>.cls-1{fill-rule:evenodd;}</style></defs><g id="Layer_2" data-name="Layer 2"><g id="Layer_1-2" data-name="Layer 1"><path d="M255.36,49.13c-14.67-15.19-36.07-23.9-58.69-23.9s-44,8.71-58.68,23.9a72.53,72.53,0,0,0-20.18,53.45l2.13,27.06c2,27.34,17.82,30.3,24.55,30.3a30.39,30.39,0,0,0,7.63-1,91.2,91.2,0,0,1,.29,10.55l0,4.86c0,3.52-.12,8.87,3.62,12.65a12.19,12.19,0,0,0,9,3.45H228.3a12.2,12.2,0,0,0,9-3.44c3.74-3.79,3.67-9.13,3.63-12.66l0-4.85a91.19,91.19,0,0,1,.3-10.56,30.62,30.62,0,0,0,7.62,1c6.73,0,22.6-3,24.55-30.25l2.12-26.83v-.28A72.52,72.52,0,0,0,255.36,49.13ZM262.48,102l-2.11,26.72c-.86,12-4.74,18.16-11.52,18.16a18.64,18.64,0,0,1-5.26-.87c-4.65-1.34-8.67-.44-11.52,2.42-4.32,4.36-4.28,11.4-4.21,21.14l0,4.93c0,.8,0,2,0,2.86H214.05V161.21H203.6v16.14H189.74V161.21H179.29v16.14H165.5c-.07-.87-.06-2.06-.05-2.87l0-4.94c.07-9.73.12-16.76-4.21-21.12-2.83-2.85-6.76-3.79-11.57-2.4a18.57,18.57,0,0,1-5.21.85c-6.78,0-10.65-6.11-11.52-18.21L130.86,102a59.61,59.61,0,0,1,16.52-43.78c12.23-12.65,30.19-19.91,49.29-19.91S233.74,45.56,246,58.21A59.53,59.53,0,0,1,262.48,102Z"/><path d="M196.68,125.13c-3.14,0-10.05,15.07-11.31,17.58a3.86,3.86,0,0,0,5,5,15.21,15.21,0,0,0,6.28-4.39,15.13,15.13,0,0,0,6.27,4.39,3.86,3.86,0,0,0,5-5C206.71,140.2,199.82,125.13,196.68,125.13Z"/><path d="M109,111.14l-71.4,18.1-10.35-6.16a18,18,0,1,0-18.44,31l1.28.76-.76,1.28a18,18,0,0,0,31,18.45l6.16-10.35,71.4-18.1Z"/><path d="M384.55,61l-1.28-.77.76-1.28a18,18,0,0,0-31-18.44L346.9,50.83l-71.4,18.1,8.86,34.95,71.4-18.1,10.35,6.16a18,18,0,0,0,18.44-31Z"/><path d="M284.36,111.14l71.4,18.1,10.35-6.16a18,18,0,0,1,18.44,31l-1.28.76.76,1.28a18,18,0,1,1-31,18.45l-6.16-10.35-71.4-18.1Z"/><path d="M8.8,61l1.28-.77-.76-1.28a18,18,0,0,1,31-18.44l6.16,10.35,71.4,18.1L109,103.88l-71.4-18.1L27.24,91.94A18,18,0,1,1,8.8,61Z"/><path class="cls-1" d="M149.49,100.52l-1.35,9.5a18.15,18.15,0,0,0,36.11,3.78l1.06-7.47L151.76,93.46A18.05,18.05,0,0,0,149.49,100.52Z"/><path class="cls-1" d="M243.85,100.52a18.05,18.05,0,0,0-2.27-7.06L208,106.33l1.06,7.47A18.15,18.15,0,0,0,245.2,110Z"/><path class="cls-1" d="M271.54,12l-8.12,2.21c-4.4,1.2-9.71.73-13.19-1.17L226.37,0c-6.7,3.55-17.51,5.85-29.7,5.85S173.67,3.55,167,0L143.11,13c-3.48,1.9-8.79,2.37-13.19,1.17L121.8,12c-17.54-4.79-36.92,4.38-30.72,14.52l21,34.33c4.66,7.63,17.76,12.78,32.51,12.78H248.76c14.75,0,27.85-5.15,32.51-12.78l21-34.33C308.46,16.35,289.08,7.18,271.54,12Z"/><path d="M180.14,32.6c0-5.87,0-8.81.69-9.8s3.45-1.93,9-3.82l1.05-.36c2.88-1,4.32-1.48,5.81-1.48s2.93.49,5.81,1.48l1.05.36c5.53,1.89,8.29,2.84,9,3.82s.69,3.93.69,9.8v2.9c0,10.36-7.78,15.38-12.67,17.52a9.09,9.09,0,0,1-7.72,0c-4.89-2.14-12.67-7.16-12.67-17.52Z"/></g></g></svg>