<svg xmlns="http://www.w3.org/2000/svg" viewBox="0 0 393.35 199.1"><defs><style>.cls-1{fill-rule:evenodd;}</style></defs><g id="Layer_2" data-name="Layer 2"><g id="Layer_1-2" data-name="Layer 1"><path d="M255.36,57.81c-14.67-15.19-36.07-23.9-58.69-23.9s-44,8.71-58.68,23.9a72.53,72.53,0,0,0-20.18,53.45l2.13,27.06c2,27.35,17.82,30.3,24.55,30.3a30.39,30.39,0,0,0,7.63-1,91.2,91.2,0,0,1,.29,10.55l0,4.86c0,3.53-.12,8.87,3.62,12.65a12.19,12.19,0,0,0,9,3.45H228.3a12.2,12.2,0,0,0,9-3.44c3.74-3.79,3.67-9.13,3.63-12.66l0-4.85a91.19,91.19,0,0,1,.3-10.56,30.62,30.62,0,0,0,7.62,1c6.73,0,22.6-3,24.55-30.25l2.12-26.83v-.28A72.52,72.52,0,0,0,255.36,57.81Zm7.12,52.86-2.11,26.72c-.86,12.05-4.74,18.16-11.52,18.16a18.64,18.64,0,0,1-5.26-.87c-4.65-1.34-8.67-.44-11.52,2.42-4.32,4.36-4.28,11.4-4.21,21.14l0,4.93c0,.8,0,2,0,2.86H214.05V169.89H203.6V186H189.74V169.89H179.29V186H165.5c-.07-.87-.06-2.06-.05-2.87l0-4.94c.07-9.73.12-16.76-4.21-21.12-2.83-2.85-6.76-3.79-11.57-2.4a18.21,18.21,0,0,1-5.21.85c-6.78,0-10.65-6.11-11.52-18.21l-2.11-26.67a59.61,59.61,0,0,1,16.52-43.78C159.61,54.24,177.57,47,196.67,47S233.74,54.24,246,66.89A59.53,59.53,0,0,1,262.48,110.67Z"/><path d="M196.68,133.81c-3.14,0-10.05,15.07-11.31,17.58a3.86,3.86,0,0,0,5,5,15.21,15.21,0,0,0,6.28-4.39,15.13,15.13,0,0,0,6.27,4.39,3.86,3.86,0,0,0,5-5C206.71,148.88,199.82,133.81,196.68,133.81Z"/><path d="M109,119.82l-71.4,18.1-10.35-6.16a18,18,0,1,0-18.44,31l1.28.76-.76,1.28a18,18,0,0,0,31,18.45l6.16-10.35,71.4-18.1Z"/><path d="M384.55,69.65l-1.28-.77L384,67.6a18,18,0,0,0-31-18.44L346.9,59.51l-71.4,18.1,8.86,35,71.4-18.1,10.35,6.16a18,18,0,0,0,18.44-31Z"/><path d="M284.36,119.82l71.4,18.1,10.35-6.16a18,18,0,0,1,18.44,31l-1.28.76.76,1.28a18,18,0,1,1-31,18.45l-6.16-10.35-71.4-18.1Z"/><path d="M8.8,69.65l1.28-.77L9.32,67.6a18,18,0,0,1,31-18.44l6.16,10.35,71.4,18.1-8.86,35-71.4-18.1-10.35,6.16a18,18,0,1,1-18.44-31Z"/><path class="cls-1" d="M172.44,5.47c13.38-7.29,35.08-7.29,48.47,0l29.33,16c3.47,1.9,8.79,2.37,13.19,1.17l8.12-2.22c17.53-4.78,36.92,4.39,30.72,14.53l-21,34.33c-4.67,7.63-17.77,12.78-32.52,12.78H144.59c-14.76,0-27.86-5.15-32.52-12.78l-21-34.33c-6.2-10.14,13.18-19.31,30.72-14.53l8.12,2.22c4.4,1.2,9.71.73,13.19-1.17Z"/><path class="cls-1" d="M149.49,109.2l-1.35,9.5a18.15,18.15,0,0,0,36.11,3.78l1.06-7.47-33.55-12.87A18.05,18.05,0,0,0,149.49,109.2Z"/><path class="cls-1" d="M243.85,109.2a18.05,18.05,0,0,0-2.27-7.06L208,115l1.06,7.47a18.15,18.15,0,0,0,36.11-3.78Z"/></g></g></svg>